<svg xmlns="http://www.w3.org/2000/svg" version="1.1" xmlns:xlink="http://www.w3.org/1999/xlink" xmlns:svgjs="http://svgjs.dev/svgjs" width="1440" height="720" preserveAspectRatio="none" viewBox="0 0 1440 720"><g mask="url(&quot;#SvgjsMask1987&quot;)" fill="none"><rect width="1440" height="720" x="0" y="0" fill="url(&quot;#SvgjsLinearGradient1988&quot;)"></rect><path d="M 0,41 C 72,75 216,198 360,211 C 504,224 576,105.2 720,106 C 864,106.8 936,225.4 1080,215 C 1224,204.6 1368,86.2 1440,54L1440 720L0 720z" fill="rgba(8, 62, 9, 1)"></path><path d="M 0,437 C 96,413 288,316.2 480,317 C 672,317.8 768,442.2 960,441 C 1152,439.8 1344,337 1440,311L1440 720L0 720z" fill="rgba(28, 99, 17, 1)"></path><path d="M 0,544 C 96,564.2 288,640.6 480,645 C 672,649.4 768,558.6 960,566 C 1152,573.4 1344,658.8 1440,682L1440 720L0 720z" fill="rgba(19, 188, 25, 1)"></path></g><defs><mask id="SvgjsMask1987"><rect width="1440" height="720" fill="#ffffff"></rect></mask><linearGradient x1="12.5%" y1="-25%" x2="87.5%" y2="125%" gradientUnits="userSpaceOnUse" id="SvgjsLinearGradient1988"><stop stop-color="rgba(4, 36, 0, 1)" offset="0"></stop><stop stop-color="rgba(0, 0, 0, 1)" offset="1"></stop></linearGradient></defs></svg>