<svg xmlns="http://www.w3.org/2000/svg" version="1.1" xmlns:xlink="http://www.w3.org/1999/xlink" xmlns:svgjs="http://svgjs.dev/svgjs" width="1440" height="560" preserveAspectRatio="none" viewBox="0 0 1440 560"><g mask="url(&quot;#SvgjsMask5000&quot;)" fill="none"><rect width="1440" height="560" x="0" y="0" fill="url(&quot;#SvgjsLinearGradient5001&quot;)"></rect><path d="M1404 468L1168 232" stroke-width="10" stroke="url(&quot;#SvgjsLinearGradient5002&quot;)" stroke-linecap="round" class="BottomRight"></path><path d="M706 133L1019 446" stroke-width="10" stroke="url(&quot;#SvgjsLinearGradient5002&quot;)" stroke-linecap="round" class="BottomRight"></path><path d="M633 166L931 464" stroke-width="8" stroke="url(&quot;#SvgjsLinearGradient5003&quot;)" stroke-linecap="round" class="TopLeft"></path><path d="M453 542L93 182" stroke-width="6" stroke="url(&quot;#SvgjsLinearGradient5003&quot;)" stroke-linecap="round" class="TopLeft"></path><path d="M360 383L757 780" stroke-width="10" stroke="url(&quot;#SvgjsLinearGradient5003&quot;)" stroke-linecap="round" class="TopLeft"></path><path d="M457 189L199 -69" stroke-width="8" stroke="url(&quot;#SvgjsLinearGradient5002&quot;)" stroke-linecap="round" class="BottomRight"></path><path d="M699 234L1089 624" stroke-width="8" stroke="url(&quot;#SvgjsLinearGradient5003&quot;)" stroke-linecap="round" class="TopLeft"></path><path d="M1401 109L1207 -85" stroke-width="8" stroke="url(&quot;#SvgjsLinearGradient5003&quot;)" stroke-linecap="round" class="TopLeft"></path><path d="M1175 86L1385 296" stroke-width="6" stroke="url(&quot;#SvgjsLinearGradient5002&quot;)" stroke-linecap="round" class="BottomRight"></path><path d="M167 371L343 547" stroke-width="6" stroke="url(&quot;#SvgjsLinearGradient5002&quot;)" stroke-linecap="round" class="BottomRight"></path><path d="M519 158L763 402" stroke-width="6" stroke="url(&quot;#SvgjsLinearGradient5003&quot;)" stroke-linecap="round" class="TopLeft"></path><path d="M1353 33L1209 -111" stroke-width="6" stroke="url(&quot;#SvgjsLinearGradient5002&quot;)" stroke-linecap="round" class="BottomRight"></path><path d="M1138 551L1324 737" stroke-width="8" stroke="url(&quot;#SvgjsLinearGradient5003&quot;)" stroke-linecap="round" class="TopLeft"></path><path d="M117 328L342 553" stroke-width="6" stroke="url(&quot;#SvgjsLinearGradient5003&quot;)" stroke-linecap="round" class="TopLeft"></path><path d="M1375 77L1095 -203" stroke-width="8" stroke="url(&quot;#SvgjsLinearGradient5002&quot;)" stroke-linecap="round" class="BottomRight"></path><path d="M1012 75L1273 336" stroke-width="10" stroke="url(&quot;#SvgjsLinearGradient5003&quot;)" stroke-linecap="round" class="TopLeft"></path><path d="M813 125L1111 423" stroke-width="8" stroke="url(&quot;#SvgjsLinearGradient5003&quot;)" stroke-linecap="round" class="TopLeft"></path><path d="M335 537L-36 166" stroke-width="8" stroke="url(&quot;#SvgjsLinearGradient5003&quot;)" stroke-linecap="round" class="TopLeft"></path><path d="M21 144L199 322" stroke-width="10" stroke="url(&quot;#SvgjsLinearGradient5002&quot;)" stroke-linecap="round" class="BottomRight"></path><path d="M156 154L522 520" stroke-width="8" stroke="url(&quot;#SvgjsLinearGradient5003&quot;)" stroke-linecap="round" class="TopLeft"></path><path d="M774 77L498 -199" stroke-width="10" stroke="url(&quot;#SvgjsLinearGradient5003&quot;)" stroke-linecap="round" class="TopLeft"></path><path d="M658 150L863 355" stroke-width="10" stroke="url(&quot;#SvgjsLinearGradient5003&quot;)" stroke-linecap="round" class="TopLeft"></path><path d="M581 486L169 74" stroke-width="6" stroke="url(&quot;#SvgjsLinearGradient5003&quot;)" stroke-linecap="round" class="TopLeft"></path><path d="M401 267L804 670" stroke-width="6" stroke="url(&quot;#SvgjsLinearGradient5003&quot;)" stroke-linecap="round" class="TopLeft"></path><path d="M1305 531L1446 672" stroke-width="10" stroke="url(&quot;#SvgjsLinearGradient5002&quot;)" stroke-linecap="round" class="BottomRight"></path><path d="M1219 1L1423 205" stroke-width="6" stroke="url(&quot;#SvgjsLinearGradient5002&quot;)" stroke-linecap="round" class="BottomRight"></path><path d="M294 380L0 86" stroke-width="6" stroke="url(&quot;#SvgjsLinearGradient5002&quot;)" stroke-linecap="round" class="BottomRight"></path><path d="M1282 315L1524 557" stroke-width="6" stroke="url(&quot;#SvgjsLinearGradient5002&quot;)" stroke-linecap="round" class="BottomRight"></path><path d="M189 151L-162 -200" stroke-width="10" stroke="url(&quot;#SvgjsLinearGradient5003&quot;)" stroke-linecap="round" class="TopLeft"></path><path d="M84 242L426 584" stroke-width="10" stroke="url(&quot;#SvgjsLinearGradient5003&quot;)" stroke-linecap="round" class="TopLeft"></path><path d="M491 164L257 -70" stroke-width="8" stroke="url(&quot;#SvgjsLinearGradient5002&quot;)" stroke-linecap="round" class="BottomRight"></path><path d="M1086 462L1427 803" stroke-width="6" stroke="url(&quot;#SvgjsLinearGradient5002&quot;)" stroke-linecap="round" class="BottomRight"></path><path d="M1276 342L1513 579" stroke-width="8" stroke="url(&quot;#SvgjsLinearGradient5003&quot;)" stroke-linecap="round" class="TopLeft"></path><path d="M773 424L459 110" stroke-width="6" stroke="url(&quot;#SvgjsLinearGradient5003&quot;)" stroke-linecap="round" class="TopLeft"></path><path d="M966 472L570 76" stroke-width="10" stroke="url(&quot;#SvgjsLinearGradient5002&quot;)" stroke-linecap="round" class="BottomRight"></path><path d="M742 188L1090 536" stroke-width="6" stroke="url(&quot;#SvgjsLinearGradient5002&quot;)" stroke-linecap="round" class="BottomRight"></path><path d="M783 521L965 703" stroke-width="6" stroke="url(&quot;#SvgjsLinearGradient5002&quot;)" stroke-linecap="round" class="BottomRight"></path><path d="M611 408L846 643" stroke-width="6" stroke="url(&quot;#SvgjsLinearGradient5003&quot;)" stroke-linecap="round" class="TopLeft"></path><path d="M506 114L353 -39" stroke-width="10" stroke="url(&quot;#SvgjsLinearGradient5002&quot;)" stroke-linecap="round" class="BottomRight"></path></g><defs><mask id="SvgjsMask5000"><rect width="1440" height="560" fill="#ffffff"></rect></mask><linearGradient x1="50%" y1="100%" x2="50%" y2="0%" gradientUnits="userSpaceOnUse" id="SvgjsLinearGradient5001"><stop stop-color="rgba(0, 0, 0, 1)" offset="0"></stop><stop stop-color="rgba(0, 87, 45, 1)" offset="0.31"></stop><stop stop-color="rgba(0, 191, 99, 1)" offset="1"></stop></linearGradient><linearGradient x1="0%" y1="0%" x2="100%" y2="100%" id="SvgjsLinearGradient5002"><stop stop-color="rgba(0, 31, 16, 0)" offset="0"></stop><stop stop-color="rgba(0, 31, 16, 1)" offset="1"></stop></linearGradient><linearGradient x1="100%" y1="100%" x2="0%" y2="0%" id="SvgjsLinearGradient5003"><stop stop-color="rgba(0, 31, 16, 0)" offset="0"></stop><stop stop-color="rgba(0, 31, 16, 1)" offset="1"></stop></linearGradient></defs></svg>